<?xml version="1.0" encoding="utf-8"?>
<!-- Generator: Adobe Illustrator 18.0.0, SVG Export Plug-In . SVG Version: 6.00 Build 0)  -->
<!DOCTYPE svg PUBLIC "-//W3C//DTD SVG 1.1//EN" "http://www.w3.org/Graphics/SVG/1.1/DTD/svg11.dtd">
<svg version="1.1" id="Layer_1" xmlns="http://www.w3.org/2000/svg" xmlns:xlink="http://www.w3.org/1999/xlink" x="0px" y="0px"
	 viewBox="-12.5 816.9 25 50" enable-background="new -12.5 816.9 25 50" xml:space="preserve">
<path fill="#FFFFFF" d="M-9.8,857.3l1.2,1l0.4-7.4L-9.8,857.3z M8,850.9l0.4,7.4l1.2-1L8,850.9z M3.6,852.8c0.3-0.1,0.7-0.2,1.1-0.3
	c1-0.4,0.7,0,1,0.4c0.3,0.4,0.8,0.1,0.8,0.2c-0.3,3.7-3,2.2-3,2.2s-0.4-1.1-0.7-1.8L1,855.3c0.1,0.2,0.1,0.4,0.1,0.6
	c0.1,1.6,1.6,3,2,3h4.5L8,851l-2.8,0.2L3.6,852.8z M-8.2,851l0.4,7.9H-7l7.5-7.4l-0.5,0L-8.2,851z M-3.7,855.3c0,0-2.6,1.4-3-2.2
	c0-0.1,0.5,0.2,0.8-0.2c0.3-0.4,0-0.8,1-0.4s1.9,0.5,2,0.5C-2.7,853-3.7,855.3-3.7,855.3z"/>
<path fill="#FFFFFF" d="M-6.1,860.8c-0.1,0-0.3,0-0.5-0.1c-0.2-0.2-0.2-0.6,0-0.8l10.7-10.7c0.2-0.2,0.6-0.2,0.8,0s0.2,0.6,0,0.8
	l-10.7,10.7C-5.8,860.7-6,860.8-6.1,860.8z"/>
<path fill="#1C1C1C" d="M-9.8,832.3l1.2,1l0.4-7.4L-9.8,832.3z M8,825.9l0.4,7.4l1.2-1L8,825.9z M3.6,827.8c0.3-0.1,0.7-0.2,1.1-0.3
	c1-0.4,0.7,0,1,0.4c0.3,0.4,0.8,0.1,0.8,0.2c-0.3,3.7-3,2.2-3,2.2s-0.4-1.1-0.7-1.8L1,830.3c0.1,0.2,0.1,0.4,0.1,0.6
	c0.1,1.6,1.6,3,2,3h4.5L8,826l-2.8,0.2L3.6,827.8z M-8.2,826l0.4,7.9H-7l7.5-7.4l-0.5,0L-8.2,826z M-3.7,830.3c0,0-2.6,1.4-3-2.2
	c0-0.1,0.5,0.2,0.8-0.2c0.3-0.4,0-0.8,1-0.4s1.9,0.5,2,0.5C-2.7,828-3.7,830.3-3.7,830.3z"/>
<path fill="#1C1C1C" d="M-6.1,835.8c-0.1,0-0.3,0-0.5-0.1c-0.2-0.2-0.2-0.6,0-0.8l10.7-10.7c0.2-0.2,0.6-0.2,0.8,0s0.2,0.6,0,0.8
	l-10.7,10.7C-5.8,835.7-6,835.8-6.1,835.8z"/>
</svg>
