<?xml version="1.0" encoding="utf-8"?>
<!-- Generator: Adobe Illustrator 18.0.0, SVG Export Plug-In . SVG Version: 6.00 Build 0)  -->
<!DOCTYPE svg PUBLIC "-//W3C//DTD SVG 1.1//EN" "http://www.w3.org/Graphics/SVG/1.1/DTD/svg11.dtd">
<svg version="1.1" id="Layer_1" xmlns="http://www.w3.org/2000/svg" xmlns:xlink="http://www.w3.org/1999/xlink" x="0px" y="0px"
	 viewBox="-12.5 816.9 25 50" enable-background="new -12.5 816.9 25 50" xml:space="preserve">
<g>
	<polygon fill="#1C1C1C" points="-8.6,833.3 -8.2,825.9 -9.8,832.3 	"/>
	<path fill="#1C1C1C" d="M-8.2,826l0.4,7.9h4.5c0.4,0,1.8-1.4,2-3c0.1-0.9,0.5-1.4,1.2-1.4c0.7,0,1.1,0.5,1.2,1.4c0.1,1.6,1.6,3,2,3
		h4.5L8,826l-8.1,0.5L-8.2,826z M-3.7,830.3c0,0-2.6,1.4-3-2.2c0-0.1,0.5,0.2,0.8-0.2c0.3-0.4,0-0.8,1-0.4c1,0.4,1.9,0.5,2,0.5
		C-2.7,828-3.7,830.3-3.7,830.3z M2.6,828c0.1,0,1-0.1,2-0.5c1-0.4,0.7,0,1,0.4c0.3,0.4,0.8,0.1,0.8,0.2c-0.3,3.7-3,2.2-3,2.2
		S2.5,828,2.6,828z"/>
	<polygon fill="#1C1C1C" points="8,825.9 8.4,833.3 9.6,832.3 	"/>
</g>
<g>
	<polygon fill="#FFFFFF" points="-8.6,858.3 -8.2,850.9 -9.8,857.3 	"/>
	<path fill="#FFFFFF" d="M-8.2,851l0.4,7.9h4.5c0.4,0,1.8-1.4,2-3c0.1-0.9,0.5-1.4,1.2-1.4c0.7,0,1.1,0.5,1.2,1.4c0.1,1.6,1.6,3,2,3
		h4.5L8,851l-8.1,0.5L-8.2,851z M-3.7,855.3c0,0-2.6,1.4-3-2.2c0-0.1,0.5,0.2,0.8-0.2c0.3-0.4,0-0.8,1-0.4c1,0.4,1.9,0.5,2,0.5
		C-2.7,853-3.7,855.3-3.7,855.3z M2.6,853c0.1,0,1-0.1,2-0.5c1-0.4,0.7,0,1,0.4c0.3,0.4,0.8,0.1,0.8,0.2c-0.3,3.7-3,2.2-3,2.2
		S2.5,853,2.6,853z"/>
	<polygon fill="#FFFFFF" points="8,850.9 8.4,858.3 9.6,857.3 	"/>
</g>
</svg>
